# File created by Blade
# Date/Time:  Wed Sep 24 20:21:23 2014
# Frame Rate: 120.000 fps
#------------------------------------------------------
:FULLY-SPECIFIED
:DEGREES
715
root -7.513359 33.375091 -3.843732 9.653276 22.350982 38.122103
Spine 3.809926 -23.174976 -41.187909
Head 4.787838 -3.345239 14.351407
LeftShoulder 6.870081 -25.036388 28.655034
LeftArm 134.927156 -70.473809 -151.864481
LeftForeArm -14.719241 -0.000000 45.955523
LeftHand -14.575754 -0.000000 -32.510818
LeftHandThumb1 -26.253704 0.000000 33.147579
RightShoulder -15.085542 21.219011 -30.072953
RightArm -9.895170 5.515995 17.879481
RightForeArm -23.014268 -0.000000 9.549910
RightHand -7.832189 -0.000000 11.347213
RightHandThumb1 -24.326973 -0.000000 -32.862282
LeftUpLeg -151.972125 35.633030 -33.522094
LeftLeg 2.758748 -0.000000 -0.000000
LeftFoot 40.935201 25.103341 -9.370539
LeftToeBase 10.194055 -0.000000 -0.000000
RightUpLeg -4.786122 -5.540282 -27.973081
RightLeg 33.636713 -0.000000 -0.000000
RightFoot -22.790367 -30.903809 -0.900534
RightToeBase -0.101122 -0.000000 0.000000
716
root -7.513060 33.379976 -3.858612 9.699674 22.315773 38.144819
Spine 3.817807 -23.169418 -41.186823
Head 4.666767 -3.352457 14.285034
LeftShoulder 6.820464 -24.998417 28.677600
LeftArm 134.876689 -70.399532 -151.827776
LeftForeArm -14.716781 -0.000000 45.975515
LeftHand -14.588659 -0.000000 -32.441285
LeftHandThumb1 -26.253704 0.000000 33.147579
RightShoulder -15.084714 21.187987 -30.013114
RightArm -9.853743 5.492408 17.891251
RightForeArm -22.974589 -0.000000 9.553879
RightHand -7.723372 -0.000000 11.387612
RightHandThumb1 -24.326973 -0.000000 -32.862282
LeftUpLeg -151.978467 35.606761 -33.534706
LeftLeg 2.728829 -0.000000 -0.000000
LeftFoot 40.913778 25.158353 -9.335471
LeftToeBase 10.131825 -0.000000 -0.000000
RightUpLeg -4.844505 -5.565159 -28.015733
RightLeg 33.603822 -0.000000 -0.000000
RightFoot -22.793160 -30.845338 -0.874412
RightToeBase -0.051831 -0.000000 0.000000
717
root -7.513322 33.384745 -3.873063 9.754110 22.277591 38.168050
Spine 3.812378 -23.165917 -41.182575
Head 4.564394 -3.344376 14.207424
LeftShoulder 6.812578 -24.967128 28.669621
LeftArm 134.932717 -70.353827 -151.851741
LeftForeArm -14.755352 0.000000 45.958312
LeftHand -14.604696 0.000000 -32.460265
LeftHandThumb1 -26.253704 0.000000 33.147579
RightShoulder -15.089440 21.195724 -30.010814
RightArm -9.854115 5.482895 17.939776
RightForeArm -23.027067 0.000000 9.556083
RightHand -7.616838 -0.000000 11.391766
RightHandThumb1 -24.326973 -0.000000 -32.862282
LeftUpLeg -151.996401 35.570212 -33.565493
LeftLeg 2.695658 -0.000000 -0.000000
LeftFoot 40.936175 25.191567 -9.267299
LeftToeBase 10.031974 -0.000000 -0.000000
RightUpLeg -4.924578 -5.562033 -28.053115
RightLeg 33.599746 -0.000000 -0.000000
RightFoot -22.782128 -30.806670 -0.827436
RightToeBase -0.032680 -0.000000 0.000000
718
root -7.513237 33.390223 -3.885553 9.805068 22.232796 38.191774
Spine 3.795564 -23.161898 -41.175141
Head 4.500531 -3.327889 14.112342
LeftShoulder 6.816651 -24.938303 28.655251
LeftArm 134.998673 -70.339103 -151.883697
LeftForeArm -14.805612 0.000000 45.932924
LeftHand -14.612049 0.000000 -32.419900
LeftHandThumb1 -26.253704 0.000000 33.147579
RightShoulder -15.097762 21.175096 -30.009118
RightArm -9.820710 5.467099 17.995921
RightForeArm -23.030843 -0.000000 9.544909
RightHand -7.648441 0.000000 11.341115
RightHandThumb1 -24.326973 -0.000000 -32.862282
LeftUpLeg -151.997054 35.623162 -33.573809
LeftLeg 2.674364 -0.000000 -0.000000
LeftFoot 40.949460 25.143038 -9.247273
LeftToeBase 9.903569 -0.000000 -0.000000
RightUpLeg -4.993596 -5.501692 -28.095361
RightLeg 33.601556 -0.000000 -0.000000
RightFoot -22.760992 -30.753771 -0.837814
RightToeBase 0.022563 -0.000000 -0.000000
719
root -7.512937 33.396089 -3.898302 9.847721 22.187834 38.216243
Spine 3.791817 -23.149986 -41.181213
Head 4.458905 -3.327971 14.047613
LeftShoulder 6.825405 -24.917696 28.651442
LeftArm 135.083791 -70.310958 -151.950182
LeftForeArm -14.793298 -0.000000 45.917145
LeftHand -14.605396 -0.000000 -32.415227
LeftHandThumb1 -26.253704 0.000000 33.147579
RightShoulder -15.113154 21.158023 -30.008867
RightArm -9.787512 5.475760 18.053854
RightForeArm -23.067002 -0.000000 9.535187
RightHand -7.613785 -0.000000 11.381728
RightHandThumb1 -24.326973 -0.000000 -32.862282
LeftUpLeg -152.033438 35.570777 -33.621645
LeftLeg 2.680918 -0.000000 -0.000000
LeftFoot 40.909604 25.229162 -9.214055
LeftToeBase 10.002269 -0.000000 -0.000000
RightUpLeg -5.076709 -5.516458 -28.131378
RightLeg 33.594018 -0.000000 -0.000000
RightFoot -22.770554 -30.713588 -0.660479
RightToeBase -0.069612 -0.000000 0.000000
720
root -7.512288 33.402141 -3.910015 9.884243 22.134594 38.239527
Spine 3.785555 -23.138699 -41.193095
Head 4.439149 -3.336562 14.003500
LeftShoulder 6.833765 -24.883533 28.657928
LeftArm 135.187546 -70.300689 -152.035173
LeftForeArm -14.787761 -0.000000 45.899247
LeftHand -14.537203 -0.000000 -32.410359
LeftHandThumb1 -26.253704 0.000000 33.147579
RightShoulder -15.095493 21.160816 -29.979234
RightArm -9.789051 5.418133 18.049793
RightForeArm -23.279833 -0.000000 9.563020
RightHand -7.549076 0.000000 11.671809
RightHandThumb1 -24.326973 -0.000000 -32.862282
LeftUpLeg -152.063332 35.564159 -33.658253
LeftLeg 2.698833 -0.000000 -0.000000
LeftFoot 40.912346 25.205798 -9.146068
LeftToeBase 10.135768 -0.000000 -0.000000
RightUpLeg -5.148977 -5.526354 -28.177938
RightLeg 33.588541 -0.000000 -0.000000
RightFoot -22.751300 -30.646482 -0.624892
RightToeBase -0.085211 -0.000000 0.000000
721
root -7.513559 33.407474 -3.921657 9.911444 22.069510 38.247563
Spine 3.774974 -23.123931 -41.199861
Head 4.446640 -3.353519 13.956748
LeftShoulder 6.834338 -24.890800 28.652328
LeftArm 135.186054 -70.321893 -151.999648
LeftForeArm -14.784243 -0.000000 45.879278
LeftHand -14.510669 -0.000000 -32.369844
LeftHandThumb1 -26.253704 0.000000 33.147579
RightShoulder -15.091495 21.161145 -29.964337
RightArm -9.756145 5.371616 18.096162
RightForeArm -23.290124 -0.000000 9.545784
RightHand -7.540517 -0.000000 11.725206
RightHandThumb1 -24.326973 -0.000000 -32.862282
LeftUpLeg -152.064206 35.615526 -33.659607
LeftLeg 2.679886 -0.000000 -0.000000
LeftFoot 40.883693 25.249888 -9.135101
LeftToeBase 10.492957 -0.000000 -0.000000
RightUpLeg -5.231927 -5.488893 -28.200100
RightLeg 33.594594 -0.000000 -0.000000
RightFoot -22.708572 -30.621727 -0.607952
RightToeBase -0.108670 -0.000000 0.000000
722
root -7.515201 33.413252 -3.933398 9.948822 22.015194 38.262892
Spine 3.762934 -23.128218 -41.219793
Head 4.476705 -3.378445 13.912159
LeftShoulder 6.837030 -24.896796 28.642948
LeftArm 135.181487 -70.347089 -151.956433
LeftForeArm -14.774100 -0.000000 45.874973
LeftHand -14.489918 0.000000 -32.404852
LeftHandThumb1 -26.253704 0.000000 33.147579
RightShoulder -15.079191 21.144029 -29.925823
RightArm -9.719243 5.346570 18.126498
RightForeArm -23.263069 -0.000000 9.539485
RightHand -7.535237 0.000000 11.761319
RightHandThumb1 -24.326973 -0.000000 -32.862282
LeftUpLeg -152.055457 35.668727 -33.656595
LeftLeg 2.654777 -0.000000 -0.000000
LeftFoot 40.935246 25.288639 -9.148981
LeftToeBase 10.117771 -0.000000 -0.000000
RightUpLeg -5.308351 -5.495428 -28.230751
RightLeg 33.580898 -0.000000 -0.000000
RightFoot -22.668283 -30.590847 -0.598734
RightToeBase -0.147548 -0.000000 0.000000
723
root -7.516225 33.419141 -3.944255 9.976780 21.969009 38.281927
Spine 3.768852 -23.120489 -41.255617
Head 4.498274 -3.431887 13.905330
LeftShoulder 6.835417 -24.903825 28.648852
LeftArm 135.104872 -70.378559 -151.858314
LeftForeArm -14.771912 -0.000000 45.888448
LeftHand -14.500437 0.000000 -32.383424
LeftHandThumb1 -26.253704 0.000000 33.147579
RightShoulder -15.081480 21.148676 -29.901859
RightArm -9.692174 5.331803 18.153919
RightForeArm -23.230623 -0.000000 9.509761
RightHand -7.505878 0.000000 11.771340
RightHandThumb1 -24.326973 -0.000000 -32.862282
LeftUpLeg -152.022064 35.723056 -33.642993
LeftLeg 2.619648 -0.000000 -0.000000
LeftFoot 40.965281 25.319554 -9.139443
LeftToeBase 9.855667 -0.000000 -0.000000
RightUpLeg -5.358713 -5.535465 -28.265658
RightLeg 33.547652 -0.000000 -0.000000
RightFoot -22.600421 -30.570713 -0.665669
RightToeBase -0.158591 -0.000000 0.000000
724
root -7.518848 33.424009 -3.955241 10.002824 21.933745 38.294989
Spine 3.781464 -23.129020 -41.296147
Head 4.537258 -3.496584 13.895050
LeftShoulder 6.840593 -24.893427 28.645510
LeftArm 135.101826 -70.374534 -151.802419
LeftForeArm -14.755582 -0.000000 45.895098
LeftHand -14.513005 -0.000000 -32.387964
LeftHandThumb1 -26.253704 0.000000 33.147579
RightShoulder -15.077619 21.135959 -29.892606
RightArm -9.660756 5.291381 18.244173
RightForeArm -22.907053 0.000000 9.466540
RightHand -7.494965 -0.000000 11.523350
RightHandThumb1 -24.326973 -0.000000 -32.862282
LeftUpLeg -151.968803 35.776189 -33.609705
LeftLeg 2.568548 -0.000000 -0.000000
LeftFoot 40.965585 25.352426 -9.174149
LeftToeBase 9.729357 -0.000000 -0.000000
RightUpLeg -5.403399 -5.562766 -28.286840
RightLeg 33.514349 -0.000000 -0.000000
RightFoot -22.537962 -30.566254 -0.729392
RightToeBase -0.179138 -0.000000 0.000000
